<?xml version="1.0" standalone="no"?><!DOCTYPE svg PUBLIC "-//W3C//DTD SVG 1.1//EN" "http://www.w3.org/Graphics/SVG/1.1/DTD/svg11.dtd"><svg t="1494336269379" class="icon" style="" viewBox="0 0 1024 1024" version="1.1" xmlns="http://www.w3.org/2000/svg" p-id="892" xmlns:xlink="http://www.w3.org/1999/xlink" width="200" height="200"><defs><style type="text/css"></style></defs><path d="M448.56576 581.99296c6.44736 34.6752 17.7408 66.2208 44.36608 89.31712 32.60288 28.2816 70.98368 23.52 97.53344-10.60736 5.6-7.20128 10.60352-14.8672 16.2816-22.00192 7.86304-9.88032 18.51776-12.54912 29.696-6.92992 20.76928 10.43712 40.4224 32.54272 21.96224 64.67456-30.00448 52.22912-74.02752 80.52096-134.54464 80.56448-41.5488 0.02816-74.62016-19.68512-101.38624-49.91616-33.46432-37.7984-51.70688-82.84544-59.3152-132.44544-0.24064-1.568-0.48768-3.13984-0.88576-4.66944-0.68608-2.6304-1.49248-5.2288-2.21312-7.71072-15.5392-1.69728-17.68704-0.0896-20.9536 15.19872-9.4784 44.37248-18.27968 88.90496-28.70272 133.05088-7.3728 31.22688-18.30784 39.77472-49.82656 39.97568-64.0704 0.4096-128.14976 0.16256-192.2176-0.44928-26.3296-0.25088-37.1584-15.79776-30.16064-41.09056 0.73216-2.65472 1.13408-5.60768 2.60096-7.8208 14.85568-22.42688 14.9952-47.51872 14.85952-73.1648-0.52736-100.29568-0.45952-200.59392-0.21632-300.8896 0.02304-9.88288-2.51904-15.51616-11.87712-20.3136-28.29312-14.50368-26.49472-52.65024-13.27872-69.33888 4.29568-5.4272 13.32992-9.72928 20.33408-9.94176 32.19072-0.97024 64.45312-0.97536 96.6272 0.30592 6.64832 0.26368 15.488 5.95456 19.07968 11.76704 13.9776 22.6112 10.38336 55.40096-16.69376 68.5184-7.60064 3.68256-10.37952 8.96768-10.3744 16.8704 0.04864 108.25728-0.0256 216.51584 0.10624 324.77184 0.01664 13.10208 4.03712 16.72064 17.50272 16.8256 21.09312 0.16512 42.19648-0.33408 63.27936 0.11648 11.34336 0.24192 16.49536-5.23008 18.56-15.60576 7.16032-35.99232 14.56768-71.936 21.792-107.9168 8.96384-44.63872 36.87424-67.49312 82.59072-67.50592 18.97856-0.00512 18.70336-0.06016 22.51776-18.93504 8.7232-43.18848 26.03776-82.20288 57.59104-113.78048 54.8992-54.944 136.29312-52.75776 188.928 4.59648 30.784 33.54368 47.06432 73.71264 54.02368 117.98528 1.30432 8.29824 4.38528 11.50336 12.11008 10.04416 6.52928-1.23136 15.10144 4.88832 17.4848-9.07776 8.0704-47.29728 25.92768-90.464 60.82944-124.89216 53.7856-53.05216 135.20128-50.98624 186.4832 4.6528 35.81568 38.85824 52.52352 85.87392 57.63712 137.58592 1.3248 13.40032 3.24608 27.15648 1.62304 40.34432-3.04384 24.72448-21.32224 36.93056-52.57088 37.05088-51.34208 0.20096-102.68672 0.05888-154.0288 0.064h-15.31264c7.1744 37.22624 18.816 70.6496 48.83712 93.71648 32.89344 25.27232 69.16096 18.4512 95.22688-16.34816 4.99712-6.67008 9.57568-13.69088 14.95808-20.03328 8.80512-10.3808 19.04768-12.3456 30.7776-5.66528 22.90304 13.04064 37.63328 34.46016 19.42912 65.53728-31.86688 54.39744-78.6944 81.728-141.59488 78.47424-40.86016-2.11328-72.50048-23.83744-97.95328-54.55872-30.81856-37.1968-47.89504-80.56576-55.01568-128.09216-0.58496-3.91168-1.77792-7.73248-2.8544-12.30592l-243.65184-0.00128z m332.19072-87.63136h131.72096c-4.72064-29.89056-12.00512-48.36608-25.51296-65.46944-19.85408-25.14688-53.14944-27.74144-75.74272-5.10592-19.27424 19.3152-26.7008 44.09984-30.46528 70.57536z m-332.02176 0.6272h131.91936c-3.59936-24.92416-10.66112-47.6352-26.36928-66.94656-20.0448-24.64512-53.78816-26.41536-75.90016-3.40608-18.56384 19.31904-25.91872 43.6672-29.64992 70.35264z" fill="" p-id="893"></path></svg>